<?xml version="1.0"?>
<svg xmlns="http://www.w3.org/2000/svg" xmlns:xlink="http://www.w3.org/1999/xlink" version="1.1" id="Capa_1" x="0px" y="0px" viewBox="0 0 445.823 445.823" style="enable-background:new 0 0 445.823 445.823;" xml:space="preserve" width="512px" height="512px"><g><g>
	<path d="M428.34,422.512H17.483C7.867,422.512,0,414.645,0,405.029V40.794c0-9.616,7.867-17.483,17.483-17.483   s17.483,7.867,17.483,17.483v346.752H428.34c9.616,0,17.483,7.867,17.483,17.483S437.956,422.512,428.34,422.512z M206.594,139.866   c-6.993-5.536-17.192-4.662-23.311,1.748L73.43,257.296c-6.702,6.993-6.411,18.066,0.583,24.768   c3.497,3.205,7.576,4.662,11.947,4.662c4.662,0,9.324-1.748,12.821-5.536l99.072-104.317l62.94,48.37   c6.993,5.536,17.192,4.662,23.311-2.04l123.84-131.416v77.218c0,9.616,7.867,17.483,17.483,17.483s17.483-7.867,17.483-17.483   V49.536c0-9.616-7.867-17.483-17.483-17.483H308.871c-9.616,0-17.483,7.867-17.483,17.483s7.867,17.483,17.483,17.483h74.304   L269.534,188.237L206.594,139.866z" data-original="#000000" class="active-path" data-old_color="#5DCB6E" fill="#39A7B1"/>
</g></g> </svg>
