<?xml version="1.0"?>
<svg xmlns="http://www.w3.org/2000/svg" xmlns:xlink="http://www.w3.org/1999/xlink" version="1.1" id="Capa_1" x="0px" y="0px" viewBox="0 0 512.002 512.002" style="enable-background:new 0 0 512.002 512.002;" xml:space="preserve" width="512px" height="512px" class=""><g><g>
	<g>
		<path d="M440.163,313.071c-0.317-4.157-3.933-7.272-8.103-6.952c-4.157,0.317-7.27,3.945-6.952,8.102    c0.33,4.32,0.497,8.72,0.497,13.077c0,93.52-76.084,169.604-169.604,169.604S86.397,420.817,86.397,327.298    c0-31.704,8.811-62.63,25.483-89.435c0.587-0.943,0.957-2.003,1.087-3.104l12.384-105.262l72.252,36.126    c1.778,0.889,3.832,1.041,5.719,0.424c16.976-5.542,34.699-8.351,52.679-8.351c17.98,0,35.704,2.81,52.68,8.352    c1.884,0.616,3.941,0.464,5.719-0.425l72.251-36.126l12.384,105.262c0.13,1.102,0.5,2.162,1.086,3.104    c8.55,13.746,15.066,28.599,19.366,44.144c1.111,4.017,5.267,6.375,9.289,5.263c4.018-1.111,6.375-5.27,5.263-9.289    c-4.536-16.393-11.33-32.076-20.205-46.643l-13.447-114.286c-0.6-5.102-6.267-8.172-10.874-5.87l-79.13,39.565    c-17.58-5.41-35.859-8.152-54.384-8.152s-36.804,2.742-54.384,8.152l-79.131-39.565c-4.606-2.304-10.273,0.769-10.874,5.87    L98.168,231.338c-17.584,28.864-26.869,62.004-26.869,95.96c0,29.93,7.163,58.215,19.853,83.244    c0.083,0.455,0.204,0.908,0.376,1.355l36.641,95.265c1.121,2.915,3.922,4.84,7.046,4.84h24.157c3.314,0,6.241-2.161,7.215-5.329    l4.701-15.276c25.389,13.16,54.197,20.606,84.712,20.606c30.517,0,59.325-7.445,84.714-20.606l4.701,15.276    c0.974,3.168,3.9,5.329,7.215,5.329h24.157c3.124,0,5.924-1.924,7.046-4.839l36.994-96.183c0.125-0.325,0.217-0.653,0.295-0.982    c12.518-24.894,19.581-52.985,19.581-82.697C440.703,322.558,440.522,317.772,440.163,313.071z M153.797,496.902h-13.397    l-15.077-39.199c9.812,9.833,20.729,18.56,32.537,25.995L153.797,496.902z M371.603,496.902h-13.397l-4.062-13.204    c11.808-7.435,22.724-16.162,32.536-25.995L371.603,496.902z" data-original="#000000" class="active-path" data-old_color="#02FF00" fill="#3478A2"/>
	</g>
</g><g>
	<g>
		<path d="M386.622,206.786l-6.204-52.739c-0.6-5.102-6.267-8.172-10.874-5.87l-43.432,21.716    c-5.172,2.586-5.532,10.086-0.624,13.154l49.636,31.023c1.224,0.766,2.613,1.148,4.001,1.148    C383.586,215.217,387.143,211.205,386.622,206.786z M344.904,177.378l21.776-10.888l3.11,26.442L344.904,177.378z" data-original="#000000" class="active-path" data-old_color="#02FF00" fill="#3478A2"/>
	</g>
</g><g>
	<g>
		<path d="M185.89,169.893l-43.432-21.716c-4.606-2.305-10.273,0.769-10.874,5.87l-6.204,52.739    c-0.723,6.147,6.219,10.584,11.499,7.283l49.636-31.023c2.316-1.447,3.67-4.032,3.54-6.76    C189.925,173.559,188.332,171.114,185.89,169.893z M142.212,192.932l3.111-26.442l21.776,10.888L142.212,192.932z" data-original="#000000" class="active-path" data-old_color="#02FF00" fill="#3478A2"/>
	</g>
</g><g>
	<g>
		<path d="M328.473,239.224c-13.043,0-23.654,10.611-23.654,23.654c0,4.169,3.379,7.549,7.549,7.549s7.549-3.38,7.549-7.549    c0-4.718,3.838-8.556,8.556-8.556c4.718,0,8.556,3.838,8.556,8.556c0,4.169,3.38,7.549,7.549,7.549c4.17,0,7.549-3.38,7.549-7.549    C352.127,249.835,341.516,239.224,328.473,239.224z" data-original="#000000" class="active-path" data-old_color="#02FF00" fill="#3478A2"/>
	</g>
</g><g>
	<g>
		<path d="M183.529,239.224c-13.043,0-23.654,10.611-23.654,23.654c0,4.169,3.38,7.549,7.549,7.549c4.169,0,7.549-3.38,7.549-7.549    c0-4.718,3.838-8.556,8.556-8.556s8.556,3.838,8.556,8.556c0,4.169,3.38,7.549,7.549,7.549s7.549-3.38,7.549-7.549    C207.183,249.835,196.572,239.224,183.529,239.224z" data-original="#000000" class="active-path" data-old_color="#02FF00" fill="#3478A2"/>
	</g>
</g><g>
	<g>
		<path d="M256.001,271.434c-30.804,0-55.864,19.642-55.864,43.785c0,24.143,25.06,43.785,55.864,43.785    s55.864-19.642,55.864-43.785C311.865,291.076,286.805,271.434,256.001,271.434z M256.001,343.906    c-22.478,0-40.765-12.869-40.765-28.687c0-15.818,18.288-28.687,40.765-28.687c22.478,0,40.765,12.869,40.765,28.687    C296.766,331.037,278.479,343.906,256.001,343.906z" data-original="#000000" class="active-path" data-old_color="#02FF00" fill="#3478A2"/>
	</g>
</g><g>
	<g>
		<path d="M227.983,312.762c-3.205,1.904-4.492,5.933-3.114,9.371c1.217,2.884,4.151,4.787,7.289,4.654    c3.114-0.132,5.856-2.23,6.846-5.175C241.186,315.114,233.835,309.285,227.983,312.762z" data-original="#000000" class="active-path" data-old_color="#02FF00" fill="#3478A2"/>
	</g>
</g><g>
	<g>
		<path d="M284.944,313.411c-2.536-2.088-6.242-2.261-8.973-0.448c-2.984,1.981-4.108,5.868-2.788,9.17    c1.203,2.842,4.058,4.736,7.161,4.656c3.081-0.08,5.888-2.093,6.92-5.001C288.32,318.81,287.383,315.419,284.944,313.411z" data-original="#000000" class="active-path" data-old_color="#02FF00" fill="#3478A2"/>
	</g>
</g><g>
	<g>
		<path d="M334.712,357.112c-2.348-3.444-7.044-4.334-10.489-1.986c-20.147,13.731-43.737,20.989-68.22,20.989    c-24.485,0-48.077-7.258-68.224-20.992c-3.443-2.348-8.141-1.458-10.489,1.986c-2.35,3.447-1.461,8.142,1.984,10.49    c22.665,15.449,49.196,23.614,76.728,23.614c27.53,0,54.06-8.164,76.723-23.612C336.171,365.253,337.061,360.556,334.712,357.112z    " data-original="#000000" class="active-path" data-old_color="#02FF00" fill="#3478A2"/>
	</g>
</g><g>
	<g>
		<path d="M256.001,0c-38.389,0-69.62,31.231-69.62,69.62c0,38.389,31.232,69.619,69.62,69.619c38.389,0,69.62-31.231,69.62-69.62    S294.39,0,256.001,0z M256.001,124.142c-30.064,0-54.522-24.458-54.522-54.522c0-30.064,24.459-54.522,54.522-54.522    c30.064,0,54.522,24.458,54.522,54.522C310.523,99.684,286.065,124.142,256.001,124.142z" data-original="#000000" class="active-path" data-old_color="#02FF00" fill="#3478A2"/>
	</g>
</g><g>
	<g>
		<path d="M264.053,62.071h-16.105c-0.278,0-0.503-0.225-0.503-0.503V45.463c0-0.278,0.225-0.503,0.503-0.503h16.105    c0.277,0,0.503,0.225,0.503,0.503c0,4.169,3.379,7.549,7.549,7.549s7.549-3.38,7.549-7.549c0-8.603-6.999-15.602-15.602-15.602    h-0.503v-0.503c0-4.169-3.379-7.549-7.549-7.549c-4.169,0-7.549,3.38-7.549,7.549v0.503h-0.503    c-8.603,0-15.602,6.999-15.602,15.602v16.105c0,8.603,6.999,15.602,15.602,15.602h16.105c0.277,0,0.503,0.225,0.503,0.503v16.105    c0,0.277-0.225,0.503-0.503,0.503h-16.105c-0.278,0-0.503-0.225-0.503-0.503c0-4.169-3.38-7.549-7.549-7.549    c-4.169,0-7.549,3.38-7.549,7.549c0,8.603,6.999,15.602,15.602,15.602h0.503v0.503c0,4.169,3.38,7.549,7.549,7.549    c4.17,0,7.549-3.38,7.549-7.549v-0.503h0.503c8.603,0,15.602-6.999,15.602-15.602V77.673    C279.655,69.07,272.656,62.071,264.053,62.071z" data-original="#000000" class="active-path" data-old_color="#02FF00" fill="#3478A2"/>
	</g>
</g><g>
	<g>
		<path d="M489.521,231.172h-8.556v-8.556c0-4.169-3.379-7.549-7.549-7.549s-7.549,3.38-7.549,7.549v8.556h-8.556    c-4.17,0-7.549,3.38-7.549,7.549c0,4.169,3.379,7.549,7.549,7.549h8.556v8.556c0,4.169,3.379,7.549,7.549,7.549    s7.549-3.38,7.549-7.549v-8.556h8.556c4.17,0,7.549-3.38,7.549-7.549S493.691,231.172,489.521,231.172z" data-original="#000000" class="active-path" data-old_color="#02FF00" fill="#3478A2"/>
	</g>
</g><g>
	<g>
		<path d="M392.892,29.861h-8.556v-8.556c0-4.169-3.379-7.549-7.549-7.549c-4.17,0-7.549,3.38-7.549,7.549v8.556h-8.556    c-4.17,0-7.549,3.38-7.549,7.549s3.38,7.549,7.549,7.549h8.556v8.556c0,4.169,3.379,7.549,7.549,7.549    c4.17,0,7.549-3.38,7.549-7.549V44.96h8.556c4.17,0,7.549-3.38,7.549-7.549S397.062,29.861,392.892,29.861z" data-original="#000000" class="active-path" data-old_color="#02FF00" fill="#3478A2"/>
	</g>
</g><g>
	<g>
		<path d="M54.691,182.857h-8.556v-8.556c0-4.169-3.38-7.549-7.549-7.549s-7.549,3.38-7.549,7.549v8.556h-8.556    c-4.169,0-7.549,3.38-7.549,7.549c0,4.169,3.38,7.549,7.549,7.549h8.556v8.556c0,4.169,3.38,7.549,7.549,7.549    s7.549-3.38,7.549-7.549v-8.556h8.556c4.169,0,7.549-3.38,7.549-7.549C62.24,186.237,58.86,182.857,54.691,182.857z" data-original="#000000" class="active-path" data-old_color="#02FF00" fill="#3478A2"/>
	</g>
</g></g> </svg>
